<?xml version="1.0" encoding="utf-8"?>
<!-- Generator: Adobe Illustrator 24.0.1, SVG Export Plug-In . SVG Version: 6.00 Build 0)  -->
<svg version="1.1" id="Layer_1" xmlns="http://www.w3.org/2000/svg" xmlns:xlink="http://www.w3.org/1999/xlink" x="0px" y="0px"
	 viewBox="0 0 98 68" style="enable-background:new 0 0 98 68;" xml:space="preserve">
<style type="text/css">
	.st0{fill:#41B548;}
	.st1{fill:#94C93D;}
	.st2{fill:#C4D532;}
	.st3{fill:#FDD10E;}
	.st4{fill:#F89925;}
	.st5{fill:#F05527;}
	.st6{fill:#E91D26;}
	.st7{fill:#FFFFFF;}
</style>
<polygon class="st0" points="4.3,32.8 15.5,22.2 15.5,10.1 23.7,10.1 23.7,14.5 36.8,2 36.8,66 12.4,66 12.4,34.7 9.3,37.6 "/>
<polygon class="st0" points="63.8,5.6 59.4,9.1 39.7,9.1 39.7,2 59.4,2 "/>
<polygon class="st1" points="68.7,15 64.3,18.6 39.7,18.6 39.7,11.5 64.3,11.5 "/>
<polygon class="st2" points="73.7,24.5 69.3,28.1 39.7,28.1 39.7,21 69.3,21 "/>
<polygon class="st3" points="78.6,34 74.3,37.5 39.7,37.5 39.7,30.5 74.3,30.5 "/>
<polygon class="st4" points="83.5,43.5 79.1,47 39.7,47 39.7,39.9 79.1,39.9 "/>
<polygon class="st5" points="88.6,53 84.3,56.5 39.7,56.5 39.7,49.4 84.3,49.4 "/>
<polygon class="st6" points="93.7,62.4 89.3,66 39.7,66 39.7,58.8 89.3,58.8 "/>
<rect x="19.3" y="34.9" class="st7" width="5.1" height="7.4"/>
<rect x="24.9" y="34.9" class="st7" width="5.1" height="7.4"/>
<rect x="19.3" y="42.7" class="st7" width="5.1" height="7.4"/>
<rect x="24.9" y="42.7" class="st7" width="5.1" height="7.4"/>
<polygon class="st0" points="19.6,6.7 13.3,10.6 25.9,10.6 "/>
<g>
	<path class="st7" d="M44.5,7.5l-0.4-0.9h-1.6l-0.4,0.9h-0.9l1.7-3.9h0.8l1.7,3.9H44.5z M43.3,4.6l-0.5,1.3h1L43.3,4.6z"/>
</g>
<g>
	<path class="st7" d="M44.8,16.4c-0.1,0.1-0.2,0.2-0.3,0.3c-0.1,0.1-0.3,0.2-0.5,0.2c-0.2,0-0.4,0.1-0.6,0.1h-1.8v-3.9h1.8
		c0.4,0,0.7,0.1,0.9,0.3c0.2,0.2,0.3,0.4,0.3,0.7v0c0,0.1,0,0.2,0,0.3c0,0.1-0.1,0.2-0.1,0.2c0,0.1-0.1,0.1-0.2,0.2
		c-0.1,0.1-0.1,0.1-0.2,0.1c0.2,0.1,0.4,0.2,0.5,0.3c0.1,0.1,0.2,0.3,0.2,0.6v0C44.9,16.1,44.8,16.2,44.8,16.4z M43.8,14.2
		c0-0.1,0-0.2-0.1-0.3c-0.1-0.1-0.2-0.1-0.4-0.1h-0.8v0.8h0.8c0.2,0,0.3,0,0.4-0.1C43.8,14.5,43.8,14.4,43.8,14.2L43.8,14.2z
		 M44,15.8c0-0.1,0-0.2-0.1-0.3c-0.1-0.1-0.3-0.1-0.5-0.1h-1v0.9h1c0.2,0,0.3,0,0.4-0.1C44,16.1,44,16,44,15.8L44,15.8z"/>
</g>
<g>
	<path class="st7" d="M44.7,26.1c-0.1,0.1-0.2,0.2-0.4,0.2c-0.1,0.1-0.3,0.1-0.4,0.1c-0.2,0-0.3,0-0.5,0c-0.3,0-0.5-0.1-0.8-0.2
		c-0.2-0.1-0.5-0.2-0.6-0.4s-0.3-0.4-0.4-0.6c-0.1-0.2-0.1-0.5-0.1-0.8v0c0-0.3,0.1-0.5,0.1-0.8c0.1-0.2,0.2-0.5,0.4-0.6
		c0.2-0.2,0.4-0.3,0.6-0.4c0.2-0.1,0.5-0.2,0.8-0.2c0.2,0,0.3,0,0.5,0c0.1,0,0.3,0.1,0.4,0.1c0.1,0.1,0.2,0.1,0.3,0.2
		c0.1,0.1,0.2,0.2,0.3,0.2l-0.5,0.6c-0.2-0.1-0.3-0.2-0.5-0.3c-0.2-0.1-0.3-0.1-0.5-0.1c-0.2,0-0.3,0-0.5,0.1
		c-0.1,0.1-0.3,0.2-0.4,0.3c-0.1,0.1-0.2,0.2-0.2,0.4c-0.1,0.1-0.1,0.3-0.1,0.5v0c0,0.2,0,0.3,0.1,0.5c0.1,0.1,0.1,0.3,0.2,0.4
		c0.1,0.1,0.2,0.2,0.4,0.3c0.1,0.1,0.3,0.1,0.5,0.1c0.2,0,0.4,0,0.6-0.1s0.3-0.2,0.5-0.3l0.5,0.5C44.9,25.9,44.8,26,44.7,26.1z"/>
</g>
<g>
	<path class="st7" d="M45,34.8c-0.1,0.2-0.2,0.4-0.4,0.6s-0.4,0.3-0.7,0.4c-0.3,0.1-0.5,0.1-0.8,0.1h-1.5v-3.9h1.5
		c0.3,0,0.6,0,0.8,0.1c0.3,0.1,0.5,0.2,0.7,0.4s0.3,0.4,0.4,0.6s0.1,0.5,0.1,0.8v0C45.2,34.3,45.1,34.5,45,34.8z M44.3,34
		c0-0.2,0-0.3-0.1-0.5c-0.1-0.1-0.1-0.3-0.2-0.4s-0.2-0.2-0.4-0.2c-0.1-0.1-0.3-0.1-0.5-0.1h-0.7v2.3h0.7c0.2,0,0.3,0,0.5-0.1
		c0.1-0.1,0.3-0.1,0.4-0.2s0.2-0.2,0.2-0.4C44.2,34.3,44.3,34.2,44.3,34L44.3,34z"/>
</g>
<g>
	<path class="st7" d="M41.6,45.4v-3.9h2.9v0.8h-2.1v0.8h1.8v0.8h-1.8v0.8h2.1v0.8H41.6z"/>
</g>
<g>
	<path class="st7" d="M42.4,51.8v0.8h1.8v0.8h-1.8v1.5h-0.9V51h3v0.8H42.4z"/>
</g>
<g>
	<path class="st7" d="M44.4,64.2c-0.3,0.1-0.6,0.2-0.9,0.2c-0.3,0-0.6,0-0.8-0.2c-0.2-0.1-0.5-0.2-0.6-0.4c-0.2-0.2-0.3-0.4-0.4-0.6
		c-0.1-0.2-0.1-0.5-0.1-0.8v0c0-0.3,0.1-0.5,0.2-0.8c0.1-0.2,0.2-0.5,0.4-0.6c0.2-0.2,0.4-0.3,0.6-0.4c0.2-0.1,0.5-0.2,0.8-0.2
		c0.2,0,0.3,0,0.5,0c0.1,0,0.3,0.1,0.4,0.1c0.1,0,0.2,0.1,0.3,0.2c0.1,0.1,0.2,0.1,0.3,0.2l-0.5,0.7c-0.1-0.1-0.1-0.1-0.2-0.2
		c-0.1,0-0.1-0.1-0.2-0.1c-0.1,0-0.2-0.1-0.3-0.1c-0.1,0-0.2,0-0.3,0c-0.2,0-0.3,0-0.4,0.1c-0.1,0.1-0.3,0.2-0.4,0.3
		c-0.1,0.1-0.2,0.2-0.2,0.4c-0.1,0.1-0.1,0.3-0.1,0.5v0c0,0.2,0,0.3,0.1,0.5c0.1,0.2,0.1,0.3,0.2,0.4c0.1,0.1,0.2,0.2,0.4,0.3
		s0.3,0.1,0.5,0.1c0.3,0,0.6-0.1,0.8-0.2v-0.6h-0.9v-0.7h1.7v1.7C44.9,64,44.7,64.1,44.4,64.2z"/>
</g>
</svg>
