<svg width="40" height="40" viewBox="0 0 40 40" fill="none" xmlns="http://www.w3.org/2000/svg">
<path d="M20 40C31.0457 40 40 31.0457 40 20C40 8.95431 31.0457 0 20 0C8.95431 0 0 8.95431 0 20C0 31.0457 8.95431 40 20 40Z" fill="#F15B26"/>
<path d="M30.0618 13.993L20.873 30.3649C20.7954 30.5278 20.6707 30.6636 20.5151 30.7549C20.3595 30.8463 20.18 30.8888 20 30.8772C19.9228 30.874 19.846 30.8641 19.7705 30.8477C19.5564 30.8052 19.3641 30.6887 19.2274 30.5186C19.0928 30.3561 19.0197 30.1513 19.0211 29.9403L19.2281 21.2695L10.0989 18.8442C9.88129 18.8463 9.66898 18.7768 9.49474 18.6463C9.32024 18.5209 9.19768 18.3359 9.15018 18.1263C9.09888 17.9195 9.12127 17.7012 9.21348 17.5091C9.3057 17.317 9.46198 17.163 9.65544 17.0737L28.746 12.734C28.8844 12.664 29.0379 12.6289 29.193 12.6316C29.3209 12.6284 29.448 12.6518 29.5665 12.7001C29.685 12.7484 29.7922 12.8206 29.8814 12.9123C30.0316 13.0445 30.1318 13.2242 30.1652 13.4215C30.1987 13.6187 30.1634 13.8214 30.0653 13.9958L30.0618 13.993Z" fill="white"/>
</svg>
